REM DIRINDEX 1\2\6,1\2\7,1\2\8,1\3\9,1\3\10,1\3\11,1\4\12,1\4\13,1\4\14,1\5\15,1\5\16,1\5\17,1\5\18
REM DIRNAME cjc019,folder01,folder02,folder03,folder04,folder05,folder06,folder07,folder08,folder09,folder10,folder11,folder12,folder13,folder14,folder15,folder16,folder17
TITLE ""
FILE "2Q_t_0334-0351.mp3" MP3
  TRACK 01 AUDIO
    TITLE "13:cjc019_2725"
    INDEX 01 00:00:00
  TRACK 02 AUDIO
    TITLE "0:"
    INDEX 01 00:01:03
  TRACK 03 AUDIO
    TITLE "14:cjc019_2726"
    INDEX 01 00:01:60
  TRACK 04 AUDIO
    TITLE "0:"
    INDEX 01 00:04:74
  TRACK 05 AUDIO
    TITLE "13:cjc019_2727"
    INDEX 01 00:05:52
  TRACK 06 AUDIO
    TITLE "0:"
    INDEX 01 00:07:07
  TRACK 07 AUDIO
    TITLE "14:cjc019_2728"
    INDEX 01 00:07:66
  TRACK 08 AUDIO
    TITLE "0:"
    INDEX 01 00:10:29
  TRACK 09 AUDIO
    TITLE "13:cjc019_2729"
    INDEX 01 00:11:11
  TRACK 10 AUDIO
    TITLE "0:"
    INDEX 01 00:12:32
  TRACK 11 AUDIO
    TITLE "14:cjc019_2730"
    INDEX 01 00:13:18
  TRACK 12 AUDIO
    TITLE "0:"
    INDEX 01 00:17:63
  TRACK 13 AUDIO
    TITLE "13:cjc019_2731"
    INDEX 01 00:18:41
  TRACK 14 AUDIO
    TITLE "0:"
    INDEX 01 00:19:54
  TRACK 15 AUDIO
    TITLE "14:cjc019_2732"
    INDEX 01 00:20:37
  TRACK 16 AUDIO
    TITLE "0:"
    INDEX 01 00:23:51
  TRACK 17 AUDIO
    TITLE "13:cjc019_2733"
    INDEX 01 00:24:25
  TRACK 18 AUDIO
    TITLE "0:"
    INDEX 01 00:25:39
  TRACK 19 AUDIO
    TITLE "14:cjc019_2734"
    INDEX 01 00:26:20
  TRACK 20 AUDIO
    TITLE "0:"
    INDEX 01 00:29:17
  TRACK 21 AUDIO
    TITLE "13:cjc019_2735"
    INDEX 01 00:29:72
  TRACK 22 AUDIO
    TITLE "0:"
    INDEX 01 00:31:29
  TRACK 23 AUDIO
    TITLE "14:cjc019_2736"
    INDEX 01 00:32:17
  TRACK 24 AUDIO
    TITLE "0:"
    INDEX 01 00:35:00
  TRACK 25 AUDIO
    TITLE "13:cjc019_2737"
    INDEX 01 00:35:55
  TRACK 26 AUDIO
    TITLE "0:"
    INDEX 01 00:36:66
  TRACK 27 AUDIO
    TITLE "14:cjc019_2738"
    INDEX 01 00:37:50
  TRACK 28 AUDIO
    TITLE "0:"
    INDEX 01 00:39:00
  TRACK 29 AUDIO
    TITLE "13:cjc019_2739"
    INDEX 01 00:39:49
  TRACK 30 AUDIO
    TITLE "0:"
    INDEX 01 00:41:00
  TRACK 31 AUDIO
    TITLE "14:cjc019_2740"
    INDEX 01 00:41:51
  TRACK 32 AUDIO
    TITLE "0:"
    INDEX 01 00:42:74
  TRACK 33 AUDIO
    TITLE "13:cjc019_2741"
    INDEX 01 00:43:54
  TRACK 34 AUDIO
    TITLE "0:"
    INDEX 01 00:45:06
  TRACK 35 AUDIO
    TITLE "14:cjc019_2742"
    INDEX 01 00:45:63
  TRACK 36 AUDIO
    TITLE "0:"
    INDEX 01 00:48:57
  TRACK 37 AUDIO
    TITLE "13:cjc019_2743"
    INDEX 01 00:49:37
  TRACK 38 AUDIO
    TITLE "0:"
    INDEX 01 00:50:56
  TRACK 39 AUDIO
    TITLE "14:cjc019_2744"
    INDEX 01 00:51:42
  TRACK 40 AUDIO
    TITLE "0:"
    INDEX 01 00:54:66
  TRACK 41 AUDIO
    TITLE "13:cjc019_2745"
    INDEX 01 00:55:48
  TRACK 42 AUDIO
    TITLE "0:"
    INDEX 01 00:57:01
  TRACK 43 AUDIO
    TITLE "14:cjc019_2746"
    INDEX 01 00:57:62
  TRACK 44 AUDIO
    TITLE "0:"
    INDEX 01 00:59:04
  TRACK 45 AUDIO
    TITLE "13:cjc019_2747"
    INDEX 01 00:59:57
  TRACK 46 AUDIO
    TITLE "0:"
    INDEX 01 01:01:05
  TRACK 47 AUDIO
    TITLE "14:cjc019_2748"
    INDEX 01 01:01:68
  TRACK 48 AUDIO
    TITLE "0:"
    INDEX 01 01:04:39
  TRACK 49 AUDIO
    TITLE "13:cjc019_2749"
    INDEX 01 01:05:19
  TRACK 50 AUDIO
    TITLE "0:"
    INDEX 01 01:06:45
  TRACK 51 AUDIO
    TITLE "14:cjc019_2750"
    INDEX 01 01:07:29
  TRACK 52 AUDIO
    TITLE "0:"
    INDEX 01 01:08:54
  TRACK 53 AUDIO
    TITLE "13:cjc019_2751"
    INDEX 01 01:09:40
  TRACK 54 AUDIO
    TITLE "0:"
    INDEX 01 01:10:57
  TRACK 55 AUDIO
    TITLE "14:cjc019_2752"
    INDEX 01 01:11:43
  TRACK 56 AUDIO
    TITLE "0:"
    INDEX 01 01:12:68
  TRACK 57 AUDIO
    TITLE "13:cjc019_2753"
    INDEX 01 01:13:47
  TRACK 58 AUDIO
    TITLE "0:"
    INDEX 01 01:14:57
  TRACK 59 AUDIO
    TITLE "14:cjc019_2754"
    INDEX 01 01:15:40
  TRACK 60 AUDIO
    TITLE "0:"
    INDEX 01 01:16:48
  TRACK 61 AUDIO
    TITLE "13:cjc019_2755"
    INDEX 01 01:17:32
  TRACK 62 AUDIO
    TITLE "0:"
    INDEX 01 01:18:39
  TRACK 63 AUDIO
    TITLE "14:cjc019_2756"
    INDEX 01 01:19:19
  TRACK 64 AUDIO
    TITLE "0:"
    INDEX 01 01:21:65
  TRACK 65 AUDIO
    TITLE "13:cjc019_2757"
    INDEX 01 01:22:46
  TRACK 66 AUDIO
    TITLE "0:"
    INDEX 01 01:23:54
  TRACK 67 AUDIO
    TITLE "14:cjc019_2758"
    INDEX 01 01:24:45
  TRACK 68 AUDIO
    TITLE "0:"
    INDEX 01 01:27:48
  TRACK 69 AUDIO
    TITLE "13:cjc019_2759"
    INDEX 01 01:28:22
  TRACK 70 AUDIO
    TITLE "0:"
    INDEX 01 01:29:45
  TRACK 71 AUDIO
    TITLE "14:cjc019_2760"
    INDEX 01 01:30:26
  TRACK 72 AUDIO
    TITLE "0:"
    INDEX 01 01:32:00
